<svg height="480pt" viewBox="0 0 480 480" width="480pt" xmlns="http://www.w3.org/2000/svg"><path d="m472 16h-112c-4.417969 0-8 3.582031-8 8v24h-96v-40c0-4.417969-3.582031-8-8-8h-128c-4.417969 0-8 3.582031-8 8v72h-104c-4.417969 0-8 3.582031-8 8v384c0 4.417969 3.582031 8 8 8h464c4.417969 0 8-3.582031 8-8v-448c0-4.417969-3.582031-8-8-8zm-456 80h96v368h-96zm112-80h112v448h-112zm128 48h96v400h-96zm208 400h-96v-432h96zm0 0"/><path d="m88 408h-48c-4.417969 0-8 3.582031-8 8s3.582031 8 8 8h48c4.417969 0 8-3.582031 8-8s-3.582031-8-8-8zm0 0"/><path d="m88 432h-48c-4.417969 0-8 3.582031-8 8s3.582031 8 8 8h48c4.417969 0 8-3.582031 8-8s-3.582031-8-8-8zm0 0"/><path d="m216 408h-64c-4.417969 0-8 3.582031-8 8s3.582031 8 8 8h64c4.417969 0 8-3.582031 8-8s-3.582031-8-8-8zm0 0"/><path d="m216 432h-64c-4.417969 0-8 3.582031-8 8s3.582031 8 8 8h64c4.417969 0 8-3.582031 8-8s-3.582031-8-8-8zm0 0"/><path d="m328 408h-48c-4.417969 0-8 3.582031-8 8s3.582031 8 8 8h48c4.417969 0 8-3.582031 8-8s-3.582031-8-8-8zm0 0"/><path d="m328 432h-48c-4.417969 0-8 3.582031-8 8s3.582031 8 8 8h48c4.417969 0 8-3.582031 8-8s-3.582031-8-8-8zm0 0"/><path d="m440 408h-48c-4.417969 0-8 3.582031-8 8s3.582031 8 8 8h48c4.417969 0 8-3.582031 8-8s-3.582031-8-8-8zm0 0"/><path d="m440 432h-48c-4.417969 0-8 3.582031-8 8s3.582031 8 8 8h48c4.417969 0 8-3.582031 8-8s-3.582031-8-8-8zm0 0"/><path d="m456 176v-80c0-4.417969-3.582031-8-8-8s-8 3.582031-8 8v80c0 4.417969 3.582031 8 8 8s8-3.582031 8-8zm0 0"/><path d="m392 136c0 4.417969-3.582031 8-8 8s-8-3.582031-8-8 3.582031-8 8-8 8 3.582031 8 8zm0 0"/><path d="m384 208h64c4.417969 0 8-3.582031 8-8s-3.582031-8-8-8h-56v-8c0-4.417969-3.582031-8-8-8s-8 3.582031-8 8v16c-.023438 2.128906.8125 4.175781 2.320312 5.679688 1.503907 1.507812 3.550782 2.34375 5.679688 2.320312zm0 0"/><path d="m456 72c0 4.417969-3.582031 8-8 8s-8-3.582031-8-8 3.582031-8 8-8 8 3.582031 8 8zm0 0"/><path d="m96 272c-4.417969 0-8 3.582031-8 8v80c0 4.417969 3.582031 8 8 8s8-3.582031 8-8v-80c0-4.417969-3.582031-8-8-8zm0 0"/><path d="m104 256c0 4.417969-3.582031 8-8 8s-8-3.582031-8-8 3.582031-8 8-8 8 3.582031 8 8zm0 0"/><path d="m40 368c0-4.417969-3.582031-8-8-8s-8 3.582031-8 8v16c-.023438 2.128906.8125 4.175781 2.320312 5.679688 1.503907 1.507812 3.550782 2.34375 5.679688 2.320312h64c4.417969 0 8-3.582031 8-8s-3.582031-8-8-8h-56zm0 0"/><path d="m40 320c0 4.417969-3.582031 8-8 8s-8-3.582031-8-8 3.582031-8 8-8 8 3.582031 8 8zm0 0"/><path d="m280 368c0-4.417969-3.582031-8-8-8s-8 3.582031-8 8v16c-.023438 2.128906.8125 4.175781 2.320312 5.679688 1.503907 1.507812 3.550782 2.34375 5.679688 2.320312h64c4.417969 0 8-3.582031 8-8s-3.582031-8-8-8h-56zm0 0"/><path d="m344 256c0 4.417969-3.582031 8-8 8s-8-3.582031-8-8 3.582031-8 8-8 8 3.582031 8 8zm0 0"/><path d="m336 272c-4.417969 0-8 3.582031-8 8v80c0 4.417969 3.582031 8 8 8s8-3.582031 8-8v-80c0-4.417969-3.582031-8-8-8zm0 0"/><path d="m272 296c4.417969 0 8-3.582031 8-8v-40h24c4.417969 0 8-3.582031 8-8s-3.582031-8-8-8h-32c-4.417969 0-8 3.582031-8 8v48c0 4.417969 3.582031 8 8 8zm0 0"/><path d="m32 296c4.417969 0 8-3.582031 8-8v-40h24c4.417969 0 8-3.582031 8-8s-3.582031-8-8-8h-32c-4.417969 0-8 3.582031-8 8v48c0 4.417969 3.582031 8 8 8zm0 0"/><path d="m384 112c4.417969 0 8-3.582031 8-8v-40h24c4.417969 0 8-3.582031 8-8s-3.582031-8-8-8h-32c-4.417969 0-8 3.582031-8 8v48c0 4.417969 3.582031 8 8 8zm0 0"/><path d="m144 96c4.417969 0 8-3.582031 8-8v-40h24c4.417969 0 8-3.582031 8-8s-3.582031-8-8-8h-32c-4.417969 0-8 3.582031-8 8v48c0 4.417969 3.582031 8 8 8zm0 0"/><path d="m280 320c0 4.417969-3.582031 8-8 8s-8-3.582031-8-8 3.582031-8 8-8 8 3.582031 8 8zm0 0"/><path d="m152 120c0 4.417969-3.582031 8-8 8s-8-3.582031-8-8 3.582031-8 8-8 8 3.582031 8 8zm0 0"/><path d="m232 40c0 4.417969-3.582031 8-8 8s-8-3.582031-8-8 3.582031-8 8-8 8 3.582031 8 8zm0 0"/><path d="m224 56c-4.417969 0-8 3.582031-8 8v80c0 4.417969 3.582031 8 8 8s8-3.582031 8-8v-80c0-4.417969-3.582031-8-8-8zm0 0"/><path d="m136 168c0 4.417969 3.582031 8 8 8h80c4.417969 0 8-3.582031 8-8s-3.582031-8-8-8h-80c-4.417969 0-8 3.582031-8 8zm0 0"/><path d="m304 144c17.671875 0 32-14.328125 32-32s-14.328125-32-32-32-32 14.328125-32 32 14.328125 32 32 32zm0-48c8.835938 0 16 7.164062 16 16s-7.164062 16-16 16-16-7.164062-16-16 7.164062-16 16-16zm0 0"/><path d="m64 176c17.671875 0 32-14.328125 32-32s-14.328125-32-32-32-32 14.328125-32 32 14.328125 32 32 32zm0-48c8.835938 0 16 7.164062 16 16s-7.164062 16-16 16-16-7.164062-16-16 7.164062-16 16-16zm0 0"/></svg>